<?xml version="1.0" encoding="utf-8" ?>
<svg xmlns="http://www.w3.org/2000/svg" xmlns:xlink="http://www.w3.org/1999/xlink" width="1024" height="1024">
	<path fill="white" transform="scale(2 2)" d="M389.484 210.594C390.208 214.235 391.39 217.811 392.191 221.448C403.51 272.882 386.684 326.093 350.63 364.12C292.252 425.694 192.924 426.08 132.027 367.914C93.8767 331.474 76.8785 280.144 85.9764 228.47C98.4374 157.695 163.069 102.168 234.974 100.64C294.836 100.371 343.022 127.157 374.921 179.035C372.383 181.757 370.05 184.681 367.82 187.659C359.915 174.307 351 161.275 339.489 150.726C278.681 95.0024 187.316 98.0656 131.517 159.345C70.5223 226.33 86.2199 328.026 159.662 376.843C217.204 415.09 299.109 406.191 345.605 354.58C375.253 323.028 395.259 264.17 381.595 221.49C384.106 217.748 386.549 214.025 389.484 210.594Z"/>
	<path fill="white" transform="scale(2 2)" d="M387.246 179.035C387.297 171.912 386.631 128.963 387.761 125.884C388.302 124.409 389.403 123.914 390.755 123.279C396.797 122.835 402.252 129.335 406.823 132.738C412.757 137.156 422.635 143.684 427.755 148.773C430.56 151.561 428.327 156.662 424.619 157.178C421.605 157.597 401.097 141.04 397.456 138.466L397.462 170.28C397.489 188.364 397.739 182.287 385.797 197.395L368.143 219.935C362.784 226.7 357.215 233.432 352.201 240.455C351.76 264.195 352.889 288.001 352.15 311.72C351.877 320.483 349.369 326.568 342.972 332.615C317.775 353.486 285.057 322.827 302.962 296.958C312.039 283.843 329.375 283.092 341.783 291.688L341.799 252.107C341.793 246.46 340.016 239.173 343.552 234.361C357.21 215.774 373.067 197.533 387.246 179.035ZM324.092 295.827C301.52 299.182 304.549 329.76 325.936 329.157C349.923 326.874 343.932 293.892 324.092 295.827Z"/>
	<path fill="white" transform="scale(2 2)" d="M134.465 272.966C128.551 276.213 126.423 270.589 126.007 265.792C120.5 202.29 166.518 147.622 230.1 142.352L230.931 142.296C239.597 141.75 244.086 151.578 229.253 152.891C175.493 157.651 131.903 206.463 136.082 260.801C136.421 265.205 138.108 269.633 134.465 272.966Z"/>
	<path fill="white" transform="scale(2 2)" d="M243.215 327.256C204.224 327.585 171.98 302.866 167.442 262.908C163.535 228.507 186.132 195.701 219.304 186.398C224.451 184.955 229.681 184.352 234.974 183.753C271.622 181.109 305.615 209.824 310.199 246.044C314.624 281.01 292.994 315.008 258.829 324.461C253.685 325.884 248.501 326.604 243.215 327.256ZM234.974 194.101C179.259 198.716 156.754 267.579 199.581 302.812C212.952 313.812 226.284 317.088 243.215 316.741C278.078 313.582 303.504 284.569 300.106 249.338C296.947 216.572 267.651 192.183 234.974 194.101Z"/>
	<path fill="white" transform="scale(2 2)" d="M241.786 276.228C213.401 280.124 207.558 238.292 236.129 233.824C263.614 231.388 269.66 271.924 241.786 276.228ZM237.824 243.791C222.469 247.085 224.969 266.869 239.784 266.274C255.163 262.664 250.788 242.605 237.824 243.791Z"/>
</svg>
